<svg xmlns="http://www.w3.org/2000/svg" xmlns:xlink="http://www.w3.org/1999/xlink" width="500" zoomAndPan="magnify" viewBox="0 0 375 374.999991" height="500" preserveAspectRatio="xMidYMid meet" version="1.0"><defs><clipPath id="3b5bb8f473"><path d="M 181 206 L 353 206 L 353 374.792969 L 181 374.792969 Z M 181 206 " clip-rule="nonzero"/></clipPath></defs><path fill="#0883c7" d="M 143.25 232.8125 C 145.070312 232.8125 146.859375 231.9375 147.957031 230.316406 C 149.710938 227.71875 149.027344 224.191406 146.429688 222.4375 C 140.195312 218.222656 136.472656 211.222656 136.472656 203.710938 C 136.472656 200.257812 137.269531 196.878906 138.761719 193.820312 C 139.703125 194.625 140.726562 195.359375 141.839844 196.003906 C 142.734375 196.523438 143.710938 196.769531 144.675781 196.769531 C 146.636719 196.769531 148.542969 195.75 149.59375 193.933594 C 151.164062 191.21875 150.234375 187.75 147.523438 186.179688 C 143.089844 183.613281 141.566406 177.921875 144.132812 173.488281 C 146.695312 169.054688 152.390625 167.535156 156.824219 170.097656 C 159.539062 171.664062 163.007812 170.738281 164.578125 168.027344 C 166.144531 165.3125 165.21875 161.84375 162.507812 160.273438 C 152.65625 154.574219 140.003906 157.953125 134.308594 167.804688 C 132.414062 171.082031 131.527344 174.664062 131.542969 178.199219 C 130.089844 177.417969 128.777344 176.300781 128.019531 174.703125 C 121.71875 161.425781 108.152344 161.425781 100.570312 164.660156 C 97.691406 165.890625 96.332031 169.234375 97.5625 172.117188 C 98.792969 175 102.105469 176.347656 104.988281 175.113281 C 105.015625 175.105469 107.621094 174.0625 110.558594 174.253906 C 113.859375 174.472656 116.148438 176.160156 117.769531 179.570312 C 120.195312 184.683594 124.355469 187.582031 128.371094 189.226562 C 126.25 193.722656 125.125 198.667969 125.125 203.710938 C 125.125 214.996094 130.714844 225.511719 140.078125 231.839844 C 141.050781 232.5 142.15625 232.8125 143.25 232.8125 Z M 143.25 232.8125 " fill-opacity="1" fill-rule="nonzero"/><path fill="#0883c7" d="M 173.140625 196.449219 C 170.609375 194.605469 167.058594 195.160156 165.210938 197.695312 C 160.558594 204.078125 161.96875 213.058594 168.351562 217.710938 C 170.890625 219.5625 173.84375 220.453125 176.769531 220.453125 C 181.195312 220.453125 185.566406 218.414062 188.367188 214.570312 C 190.214844 212.039062 189.65625 208.488281 187.125 206.644531 C 184.59375 204.796875 181.042969 205.355469 179.195312 207.886719 C 178.230469 209.214844 176.363281 209.507812 175.035156 208.539062 C 174.390625 208.070312 173.972656 207.378906 173.847656 206.59375 C 173.722656 205.808594 173.914062 205.019531 174.382812 204.378906 C 176.230469 201.847656 175.675781 198.296875 173.140625 196.449219 Z M 173.140625 196.449219 " fill-opacity="1" fill-rule="nonzero"/><path fill="#0883c7" d="M 244.746094 237.695312 C 245.332031 231.941406 243.851562 226.828125 240.46875 222.902344 C 236.734375 218.578125 231.515625 216.574219 227.632812 215.648438 C 228.292969 212.605469 228.199219 209.425781 227.316406 206.347656 C 225.910156 201.429688 222.671875 197.359375 218.203125 194.875 C 215.464844 193.355469 212.007812 194.34375 210.488281 197.085938 C 208.96875 199.824219 209.953125 203.277344 212.695312 204.800781 C 214.515625 205.808594 215.832031 207.46875 216.40625 209.46875 C 216.976562 211.46875 216.738281 213.574219 215.726562 215.394531 C 214.71875 217.214844 213.058594 218.53125 211.058594 219.105469 C 209.058594 219.675781 206.953125 219.4375 205.132812 218.425781 C 202.390625 216.90625 198.9375 217.894531 197.417969 220.632812 C 195.898438 223.375 196.882812 226.828125 199.625 228.351562 C 202.507812 229.949219 205.679688 230.761719 208.886719 230.761719 C 210.128906 230.761719 211.375 230.632812 212.613281 230.386719 C 208.644531 236.890625 201.484375 241.246094 193.320312 241.246094 C 184.589844 241.246094 176.554688 236.125 172.855469 228.203125 C 172.84375 228.179688 172.832031 228.160156 172.820312 228.136719 C 172.753906 228 172.683594 227.867188 172.609375 227.738281 C 172.589844 227.703125 172.566406 227.667969 172.546875 227.636719 C 172.46875 227.507812 172.382812 227.378906 172.292969 227.257812 C 172.273438 227.230469 172.253906 227.203125 172.234375 227.179688 C 172.136719 227.046875 172.035156 226.921875 171.925781 226.804688 C 171.914062 226.792969 171.90625 226.78125 171.894531 226.769531 C 170.859375 225.628906 169.371094 224.910156 167.714844 224.910156 C 164.871094 224.910156 162.523438 226.984375 162.109375 229.707031 C 162.109375 229.71875 162.109375 229.730469 162.105469 229.742188 C 162.085938 229.878906 162.070312 230.019531 162.058594 230.160156 C 162.054688 230.25 162.050781 230.339844 162.046875 230.429688 C 162.046875 230.476562 162.039062 230.519531 162.039062 230.5625 C 162.015625 232.140625 161.492188 240.0625 153.664062 241.273438 C 138.066406 243.683594 135.253906 257.484375 135.945312 264.441406 C 136.238281 267.371094 138.710938 269.578125 141.59375 269.578125 C 141.78125 269.578125 141.96875 269.570312 142.15625 269.550781 C 145.273438 269.242188 147.554688 266.484375 147.246094 263.367188 C 147.242188 263.339844 147.03125 260.59375 148.097656 257.871094 C 149.308594 254.78125 151.628906 253.070312 155.398438 252.488281 C 162.574219 251.378906 167.085938 247.5 169.796875 243.082031 C 176.023438 249.0625 184.429688 252.597656 193.320312 252.597656 C 209.144531 252.597656 222.46875 241.707031 226.203125 227.027344 C 228.257812 227.652344 230.480469 228.691406 231.898438 230.347656 C 233.214844 231.886719 233.722656 233.917969 233.453125 236.546875 C 231.957031 251.234375 242.160156 258.363281 247.761719 260.082031 L 251.089844 249.230469 L 251.164062 249.253906 C 249.9375 248.835938 243.863281 246.328125 244.746094 237.695312 Z M 244.746094 237.695312 " fill-opacity="1" fill-rule="nonzero"/><path fill="#0883c7" d="M 187.449219 98.902344 C 185.824219 96.21875 182.335938 95.363281 179.65625 96.984375 C 176.976562 98.609375 176.117188 102.097656 177.738281 104.777344 C 177.78125 104.847656 181.949219 112.199219 178.65625 116.988281 C 174.65625 122.808594 174.152344 128.535156 175.433594 133.46875 C 166.976562 133.570312 160.753906 134.996094 154.53125 141.316406 C 152.332031 143.550781 152.359375 147.140625 154.59375 149.339844 C 156.824219 151.539062 160.417969 151.511719 162.617188 149.277344 C 166.113281 145.726562 168.953125 144.808594 176.4375 144.808594 C 180.558594 144.808594 184.539062 145.925781 188.007812 148 C 187.125 149.097656 186.328125 150.277344 185.644531 151.546875 C 184.15625 154.304688 185.183594 157.746094 187.941406 159.234375 C 190.699219 160.722656 194.144531 159.695312 195.632812 156.9375 C 197.765625 152.984375 201.878906 150.527344 206.363281 150.527344 C 213.082031 150.527344 218.546875 155.996094 218.546875 162.714844 C 218.546875 165.027344 217.898438 167.273438 216.671875 169.214844 C 214.992188 171.863281 215.78125 175.371094 218.429688 177.046875 C 219.371094 177.640625 220.421875 177.925781 221.460938 177.925781 C 223.339844 177.925781 225.179688 176.992188 226.257812 175.285156 C 226.992188 174.128906 227.605469 172.910156 228.121094 171.652344 C 234.316406 175.78125 238.132812 182.734375 238.132812 190.414062 C 238.132812 193.59375 237.488281 196.664062 236.210938 199.542969 C 234.941406 202.40625 236.238281 205.761719 239.101562 207.03125 C 239.851562 207.359375 240.628906 207.515625 241.398438 207.515625 C 243.574219 207.515625 245.652344 206.257812 246.589844 204.140625 C 248.511719 199.804688 249.484375 195.1875 249.484375 190.414062 C 249.484375 179.738281 244.578125 169.992188 236.472656 163.679688 C 238.273438 163.507812 240.121094 164.015625 242.117188 165.21875 C 253.472656 172.050781 266.027344 163.542969 266.554688 163.175781 C 269.125 161.402344 269.761719 157.894531 268.003906 155.320312 C 266.242188 152.742188 262.71875 152.078125 260.128906 153.820312 C 260.058594 153.871094 253.023438 158.539062 247.96875 155.496094 C 240.652344 151.09375 233.777344 151.78125 228.40625 154.480469 C 225.0625 145.550781 216.445312 139.179688 206.363281 139.179688 C 203.304688 139.179688 200.34375 139.78125 197.601562 140.878906 C 195.28125 139.023438 192.75 137.488281 190.066406 136.3125 C 188.386719 134.878906 183.539062 129.917969 188.007812 123.417969 C 195.515625 112.5 187.78125 99.453125 187.449219 98.902344 Z M 187.449219 98.902344 " fill-opacity="1" fill-rule="nonzero"/><path fill="#0883c7" d="M 65.121094 187.398438 C 65.121094 254.890625 120.03125 309.796875 187.523438 309.796875 C 255.011719 309.796875 309.921875 254.890625 309.921875 187.398438 C 309.921875 119.90625 255.011719 64.996094 187.523438 64.996094 C 120.03125 64.996094 65.121094 119.90625 65.121094 187.398438 Z M 298.574219 187.398438 C 298.574219 248.632812 248.753906 298.449219 187.523438 298.449219 C 126.289062 298.449219 76.472656 248.632812 76.472656 187.398438 C 76.472656 126.164062 126.289062 76.347656 187.523438 76.347656 C 248.753906 76.347656 298.574219 126.164062 298.574219 187.398438 Z M 298.574219 187.398438 " fill-opacity="1" fill-rule="nonzero"/><path fill="#0883c7" d="M 27.40625 167.296875 C 27.710938 167.34375 28.011719 167.367188 28.308594 167.367188 C 31.046875 167.367188 33.460938 165.378906 33.90625 162.589844 C 39.691406 126.480469 58.230469 93.382812 86.117188 69.394531 C 112.882812 46.367188 146.726562 33.175781 181.953125 31.914062 L 181.953125 48.300781 C 181.953125 51.433594 184.492188 53.972656 187.628906 53.972656 C 190.761719 53.972656 193.300781 51.433594 193.300781 48.300781 L 193.300781 5.472656 C 193.300781 2.339844 190.761719 -0.203125 187.628906 -0.203125 C 184.492188 -0.203125 181.953125 2.339844 181.953125 5.472656 L 181.953125 20.558594 C 144.007812 21.828125 107.539062 35.992188 78.714844 60.792969 C 48.800781 86.523438 28.90625 122.042969 22.699219 160.796875 C 22.203125 163.890625 24.3125 166.800781 27.40625 167.296875 Z M 27.40625 167.296875 " fill-opacity="1" fill-rule="nonzero"/><path fill="#0883c7" d="M 163.011719 341.070312 C 126.835938 335.347656 93.667969 316.824219 69.621094 288.921875 C 46.558594 262.160156 33.339844 228.316406 32.050781 193.074219 L 48.53125 193.074219 C 51.664062 193.074219 54.203125 190.53125 54.203125 187.398438 C 54.203125 184.265625 51.664062 181.722656 48.53125 181.722656 L 5.703125 181.722656 C 2.570312 181.722656 0.03125 184.265625 0.03125 187.398438 C 0.03125 190.53125 2.570312 193.074219 5.703125 193.074219 L 20.699219 193.074219 C 21.988281 231.035156 36.1875 267.507812 61.023438 296.332031 C 86.824219 326.265625 122.414062 346.136719 161.238281 352.28125 C 161.539062 352.328125 161.839844 352.351562 162.132812 352.351562 C 164.875 352.351562 167.289062 350.359375 167.730469 347.5625 C 168.222656 344.46875 166.109375 341.5625 163.011719 341.070312 Z M 163.011719 341.070312 " fill-opacity="1" fill-rule="nonzero"/><g clip-path="url(#3b5bb8f473)"><path fill="#0883c7" d="M 347.742188 206.851562 C 344.644531 206.367188 341.742188 208.488281 341.261719 211.585938 C 335.601562 247.835938 317.105469 281.085938 289.179688 305.203125 C 262.421875 328.3125 228.570312 341.570312 193.304688 342.875 L 193.304688 326.496094 C 193.304688 323.363281 190.761719 320.820312 187.628906 320.820312 C 184.496094 320.820312 181.953125 323.363281 181.953125 326.496094 L 181.953125 347.660156 C 181.894531 347.984375 181.859375 348.320312 181.859375 348.667969 C 181.859375 349.011719 181.894531 349.347656 181.953125 349.675781 L 181.953125 369.324219 C 181.953125 372.457031 184.496094 374.996094 187.628906 374.996094 C 190.761719 374.996094 193.304688 372.457031 193.304688 369.324219 L 193.304688 354.230469 C 231.292969 352.917969 267.777344 338.683594 296.597656 313.792969 C 326.558594 287.917969 346.402344 252.242188 352.472656 213.335938 C 352.957031 210.238281 350.839844 207.335938 347.742188 206.851562 Z M 347.742188 206.851562 " fill-opacity="1" fill-rule="nonzero"/></g><path fill="#0883c7" d="M 369.554688 181.722656 L 354.371094 181.722656 C 353.066406 143.226562 338.519531 106.355469 313.066406 77.34375 C 286.609375 47.191406 250.273438 27.554688 210.742188 22.058594 C 207.640625 21.625 204.773438 23.789062 204.339844 26.894531 C 203.910156 30 206.074219 32.867188 209.179688 33.296875 C 246.011719 38.421875 279.875 56.722656 304.535156 84.828125 C 328.175781 111.769531 341.714844 145.984375 343.015625 181.722656 L 326.726562 181.722656 C 323.59375 181.722656 321.050781 184.265625 321.050781 187.398438 C 321.050781 190.53125 323.59375 193.074219 326.726562 193.074219 L 369.554688 193.074219 C 372.6875 193.074219 375.226562 190.53125 375.226562 187.398438 C 375.226562 184.265625 372.6875 181.722656 369.554688 181.722656 Z M 369.554688 181.722656 " fill-opacity="1" fill-rule="nonzero"/></svg>