<svg xmlns="http://www.w3.org/2000/svg" xmlns:xlink="http://www.w3.org/1999/xlink" width="500" zoomAndPan="magnify" viewBox="0 0 375 374.999991" height="500" preserveAspectRatio="xMidYMid meet" version="1.0"><path fill="#0883c7" d="M 140.253906 28.753906 C 140.253906 24.726562 143.542969 21.441406 147.570312 21.441406 C 151.597656 21.441406 154.886719 24.726562 154.886719 28.753906 C 154.886719 32.785156 151.597656 36.070312 147.570312 36.070312 C 143.542969 36.070312 140.253906 32.785156 140.253906 28.753906 Z M 56.730469 100.898438 C 56.730469 104.238281 59.4375 106.945312 62.777344 106.945312 L 232.367188 106.945312 C 235.703125 106.945312 238.414062 104.238281 238.414062 100.898438 C 238.414062 97.558594 235.703125 94.851562 232.367188 94.851562 L 62.777344 94.851562 C 59.4375 94.851562 56.730469 97.558594 56.730469 100.898438 Z M 62.777344 311.128906 L 232.367188 311.128906 C 235.703125 311.128906 238.414062 308.421875 238.414062 305.082031 C 238.414062 301.742188 235.703125 299.035156 232.367188 299.035156 L 62.777344 299.035156 C 59.4375 299.035156 56.730469 301.742188 56.730469 305.082031 C 56.730469 308.421875 59.4375 311.128906 62.777344 311.128906 Z M 374.921875 323.527344 C 374.976562 327.164062 373.617188 330.601562 371.09375 333.203125 L 354.621094 350.179688 C 352.097656 352.78125 348.703125 354.242188 345.0625 354.296875 C 344.992188 354.296875 344.921875 354.296875 344.855469 354.296875 C 341.292969 354.296875 337.941406 352.941406 335.390625 350.46875 L 295.144531 311.414062 L 295.144531 352.648438 C 295.144531 364.953125 285.132812 374.964844 272.828125 374.964844 L 22.316406 374.964844 C 10.011719 374.960938 0 364.953125 0 352.648438 L 0 53.332031 C 0 41.027344 10.011719 31.015625 22.316406 31.015625 L 78.898438 31.015625 L 78.898438 27.230469 C 78.898438 23.890625 81.605469 21.183594 84.945312 21.183594 L 116.285156 21.183594 C 121.328125 8.527344 133.585938 0.0390625 147.570312 0.0390625 C 161.558594 0.0390625 173.816406 8.527344 178.859375 21.183594 L 210.199219 21.183594 C 213.539062 21.183594 216.246094 23.894531 216.246094 27.234375 L 216.246094 31.015625 L 272.828125 31.015625 C 285.132812 31.015625 295.144531 41.027344 295.144531 53.332031 L 295.144531 162.8125 C 301.039062 174.710938 304.359375 188.097656 304.359375 202.253906 C 304.359375 216.40625 301.039062 229.796875 295.144531 241.691406 L 295.144531 252.921875 L 309.746094 267.25 C 314.75 264.8125 320.960938 265.601562 325.179688 269.695312 L 370.804688 313.972656 C 373.40625 316.496094 374.867188 319.890625 374.921875 323.527344 Z M 300.738281 275.351562 L 284.820312 259.734375 L 283.984375 258.914062 C 282.097656 261.195312 280.101562 263.378906 278.003906 265.464844 L 294.5625 281.714844 Z M 78.894531 69.527344 L 78.894531 65.742188 L 34.722656 65.742188 L 34.722656 340.238281 L 260.417969 340.238281 L 260.417969 279.046875 C 247.160156 286.878906 231.710938 291.382812 215.226562 291.382812 C 193.332031 291.382812 173.257812 283.441406 157.722656 270.292969 L 62.777344 270.292969 C 59.4375 270.292969 56.730469 267.585938 56.730469 264.246094 C 56.730469 260.90625 59.4375 258.199219 62.777344 258.199219 L 145.898438 258.199219 C 139.066406 249.746094 133.746094 240.03125 130.347656 229.457031 L 62.777344 229.457031 C 59.4375 229.457031 56.730469 226.75 56.730469 223.410156 C 56.730469 220.070312 59.4375 217.363281 62.777344 217.363281 L 127.382812 217.363281 C 126.539062 212.449219 126.097656 207.402344 126.097656 202.253906 C 126.097656 197.617188 126.453125 193.066406 127.136719 188.621094 L 62.777344 188.621094 C 59.4375 188.621094 56.730469 185.914062 56.730469 182.574219 C 56.730469 179.234375 59.4375 176.527344 62.777344 176.527344 L 129.886719 176.527344 C 133.066406 165.996094 138.148438 156.28125 144.726562 147.785156 L 62.777344 147.785156 C 59.4375 147.785156 56.730469 145.074219 56.730469 141.738281 C 56.730469 138.398438 59.4375 135.6875 62.777344 135.6875 L 156.023438 135.6875 C 171.777344 121.660156 192.523438 113.121094 215.226562 113.121094 C 231.710938 113.121094 247.160156 117.625 260.417969 125.457031 L 260.417969 65.742188 L 216.246094 65.742188 L 216.246094 69.527344 C 216.246094 72.867188 213.539062 75.574219 210.199219 75.574219 L 84.941406 75.574219 C 81.601562 75.574219 78.894531 72.867188 78.894531 69.527344 Z M 215.226562 125.214844 C 172.75 125.214844 138.191406 159.773438 138.191406 202.253906 C 138.191406 244.730469 172.75 279.289062 215.226562 279.289062 C 257.707031 279.289062 292.265625 244.730469 292.265625 202.253906 C 292.265625 159.773438 257.707031 125.214844 215.226562 125.214844 Z M 216.246094 43.109375 L 216.246094 53.648438 L 266.464844 53.648438 C 269.804688 53.648438 272.511719 56.355469 272.511719 59.695312 L 272.511719 134.023438 C 276.308594 137.214844 279.832031 140.714844 283.050781 144.484375 L 283.050781 53.332031 C 283.050781 47.695312 278.464844 43.109375 272.828125 43.109375 Z M 90.988281 63.480469 L 204.152344 63.480469 L 204.152344 33.28125 L 174.453125 33.28125 C 171.660156 33.28125 169.230469 31.367188 168.574219 28.652344 C 166.230469 18.925781 157.589844 12.132812 147.570312 12.132812 C 137.550781 12.132812 128.914062 18.925781 126.570312 28.652344 C 125.914062 31.367188 123.484375 33.28125 120.691406 33.28125 L 90.992188 33.28125 L 90.992188 63.480469 Z M 283.046875 352.648438 L 283.046875 287.359375 L 272.511719 277.019531 L 272.511719 346.285156 C 272.511719 349.625 269.804688 352.332031 266.464844 352.332031 L 28.675781 352.332031 C 25.335938 352.332031 22.628906 349.625 22.628906 346.285156 L 22.628906 59.695312 C 22.628906 56.355469 25.335938 53.648438 28.675781 53.648438 L 78.898438 53.648438 L 78.898438 43.109375 L 22.316406 43.109375 C 16.679688 43.109375 12.09375 47.695312 12.09375 53.332031 L 12.09375 352.648438 C 12.09375 358.285156 16.679688 362.867188 22.316406 362.867188 L 272.828125 362.867188 C 278.464844 362.867188 283.046875 358.285156 283.046875 352.648438 Z M 362.828125 323.707031 C 362.828125 323.472656 362.761719 323.019531 362.382812 322.648438 L 316.753906 278.375 C 316.386719 278.015625 315.949219 277.960938 315.707031 277.960938 C 315.699219 277.960938 315.691406 277.960938 315.683594 277.960938 C 315.449219 277.964844 314.996094 278.027344 314.625 278.40625 L 298.152344 295.382812 C 297.78125 295.765625 297.734375 296.21875 297.738281 296.457031 C 297.742188 296.691406 297.804688 297.144531 298.183594 297.511719 L 343.8125 341.789062 C 344.191406 342.15625 344.636719 342.203125 344.882812 342.203125 C 345.121094 342.199219 345.570312 342.136719 345.941406 341.753906 L 362.414062 324.777344 C 362.785156 324.398438 362.832031 323.945312 362.828125 323.707031 Z M 280.933594 202.253906 C 280.933594 202.382812 280.929688 202.507812 280.929688 202.636719 C 280.929688 202.65625 280.933594 202.671875 280.933594 202.691406 C 280.933594 202.722656 280.929688 202.75 280.929688 202.78125 C 280.644531 238.769531 251.28125 267.960938 215.226562 267.960938 C 179.179688 267.960938 149.824219 238.777344 149.527344 202.800781 C 149.527344 202.765625 149.523438 202.726562 149.523438 202.691406 C 149.523438 202.667969 149.523438 202.648438 149.523438 202.625 C 149.523438 202.5 149.519531 202.375 149.519531 202.253906 C 149.519531 166.019531 178.996094 136.546875 215.226562 136.546875 C 251.457031 136.546875 280.933594 166.019531 280.933594 202.253906 Z M 161.910156 196.644531 L 186.941406 196.644531 C 189.195312 196.644531 191.265625 197.898438 192.304688 199.898438 L 192.859375 200.964844 L 199.171875 163.070312 C 199.65625 160.164062 202.164062 158.027344 205.109375 158.015625 C 205.117188 158.015625 205.125 158.015625 205.136719 158.015625 C 208.070312 158.015625 210.582031 160.121094 211.089844 163.011719 L 218.628906 205.847656 L 223.683594 177.628906 C 224.179688 174.867188 226.507812 172.808594 229.308594 172.65625 C 232.109375 172.5 234.644531 174.296875 235.4375 176.984375 L 241.226562 196.644531 L 268.546875 196.644531 C 265.734375 169.707031 242.894531 148.640625 215.226562 148.640625 C 187.558594 148.640625 164.722656 169.707031 161.910156 196.644531 Z M 268.433594 208.738281 L 236.703125 208.738281 C 234.207031 208.738281 231.992188 207.207031 231.085938 204.921875 L 224.53125 241.507812 C 224.015625 244.390625 221.507812 246.488281 218.578125 246.488281 C 218.574219 246.488281 218.574219 246.488281 218.570312 246.488281 C 215.636719 246.484375 213.132812 244.375 212.621094 241.488281 L 205.300781 199.886719 L 201.820312 220.804688 C 201.390625 223.371094 199.371094 225.375 196.800781 225.78125 C 194.238281 226.1875 191.691406 224.910156 190.488281 222.601562 L 183.273438 208.738281 L 162.019531 208.738281 C 165.234375 235.25 187.863281 255.863281 215.226562 255.863281 C 242.59375 255.863281 265.21875 235.25 268.433594 208.738281 Z M 268.433594 208.738281 " fill-opacity="1" fill-rule="nonzero"/></svg>