<svg xmlns="http://www.w3.org/2000/svg" xmlns:xlink="http://www.w3.org/1999/xlink" width="500" zoomAndPan="magnify" viewBox="0 0 375 374.999991" height="500" preserveAspectRatio="xMidYMid meet" version="1.0"><defs><clipPath id="ae48a0193c"><path d="M 16.875 0 L 358.125 0 L 358.125 375 L 16.875 375 Z M 16.875 0 " clip-rule="nonzero"/></clipPath></defs><g clip-path="url(#ae48a0193c)"><path fill="#0883c7" d="M 243.773438 150.953125 C 244.957031 154.980469 245.609375 159.210938 245.609375 163.632812 L 245.609375 316.023438 C 245.609375 331.339844 241.242188 346.003906 233.613281 356.835938 C 225.359375 368.554688 214.011719 374.878906 202.339844 374.878906 L 60.175781 374.878906 C 48.5 374.878906 37.15625 368.554688 28.902344 356.835938 C 21.273438 346.003906 16.90625 331.339844 16.90625 316.023438 L 16.90625 163.632812 C 16.90625 148.242188 24.84375 135.207031 35.449219 124.78125 C 48.269531 112.175781 64.921875 103.484375 73.441406 98.851562 L 73.441406 74.875 C 65.089844 74.199219 58.511719 67.199219 58.511719 58.671875 L 58.511719 38.425781 C 58.511719 29.453125 65.796875 22.167969 74.769531 22.167969 L 102.390625 22.167969 L 102.390625 16.378906 C 102.390625 7.40625 109.675781 0.121094 118.648438 0.121094 L 143.867188 0.121094 C 152.839844 0.121094 160.125 7.40625 160.125 16.378906 L 160.125 22.167969 L 187.746094 22.167969 C 196.71875 22.167969 204.003906 29.453125 204.003906 38.425781 L 204.003906 58.671875 C 204.003906 67.199219 197.425781 74.199219 189.070312 74.875 C 189.070312 83.660156 189.070312 98.847656 189.070312 98.847656 C 193.253906 101.117188 199.40625 104.363281 206.089844 108.574219 L 206.089844 107.925781 C 206.089844 99.851562 212.660156 93.285156 220.785156 93.285156 C 220.785156 93.285156 253.15625 93.285156 253.15625 93.285156 L 253.15625 61.148438 C 253.15625 53.074219 259.726562 46.507812 267.851562 46.507812 L 296.410156 46.507812 C 304.539062 46.507812 311.105469 53.074219 311.105469 61.148438 C 311.105469 61.148438 311.105469 93.285156 311.105469 93.285156 L 343.476562 93.285156 C 351.605469 93.285156 358.171875 99.851562 358.171875 107.925781 L 358.171875 136.3125 C 358.171875 144.386719 351.605469 150.953125 343.476562 150.953125 C 343.476562 150.953125 311.105469 150.953125 311.105469 150.953125 L 311.105469 183.089844 C 311.105469 191.164062 304.539062 197.730469 296.410156 197.730469 L 267.851562 197.730469 C 259.726562 197.730469 253.15625 191.164062 253.15625 183.089844 L 253.15625 150.953125 Z M 85.714844 74.929688 L 85.714844 102.460938 C 85.714844 104.648438 84.550781 106.671875 82.660156 107.769531 C 76.222656 111.503906 57.757812 120.0625 44.054688 133.535156 C 35.78125 141.664062 29.175781 151.628906 29.175781 163.632812 L 29.175781 316.023438 C 29.175781 328.671875 32.632812 340.824219 38.933594 349.765625 C 44.609375 357.824219 52.152344 362.605469 60.175781 362.605469 L 202.339844 362.605469 C 210.363281 362.605469 217.90625 357.824219 223.582031 349.765625 C 229.878906 340.824219 233.335938 328.671875 233.335938 316.023438 L 233.335938 163.632812 C 233.335938 159.125 232.394531 154.898438 230.785156 150.953125 L 220.785156 150.953125 C 212.660156 150.953125 206.089844 144.386719 206.089844 136.3125 L 206.089844 123.316406 C 195.269531 115.636719 184.488281 110.457031 179.855469 107.769531 C 177.960938 106.671875 176.796875 104.648438 176.796875 102.460938 L 176.796875 74.929688 Z M 187.746094 34.441406 L 74.769531 34.441406 C 72.570312 34.441406 70.785156 36.226562 70.785156 38.425781 L 70.785156 58.671875 C 70.785156 60.871094 72.570312 62.65625 74.769531 62.65625 L 187.746094 62.65625 C 189.945312 62.65625 191.730469 60.871094 191.730469 58.671875 L 191.730469 38.425781 C 191.730469 36.226562 189.945312 34.441406 187.746094 34.441406 Z M 147.851562 22.167969 L 147.851562 16.378906 C 147.851562 14.179688 146.066406 12.394531 143.867188 12.394531 L 118.648438 12.394531 C 116.449219 12.394531 114.664062 14.179688 114.664062 16.378906 L 114.664062 22.167969 Z M 220.785156 138.679688 L 259.292969 138.679688 C 262.683594 138.679688 265.429688 141.429688 265.429688 144.816406 L 265.429688 183.089844 C 265.429688 184.40625 266.523438 185.457031 267.851562 185.457031 L 296.410156 185.457031 C 297.738281 185.457031 298.832031 184.40625 298.832031 183.089844 L 298.832031 144.816406 C 298.832031 141.429688 301.582031 138.679688 304.96875 138.679688 L 343.476562 138.679688 C 344.804688 138.679688 345.898438 137.628906 345.898438 136.3125 L 345.898438 107.925781 C 345.898438 106.605469 344.804688 105.558594 343.476562 105.558594 L 304.96875 105.558594 C 301.582031 105.558594 298.832031 102.808594 298.832031 99.421875 L 298.832031 61.148438 C 298.832031 59.832031 297.738281 58.78125 296.410156 58.78125 L 267.851562 58.78125 C 266.523438 58.78125 265.429688 59.832031 265.429688 61.148438 L 265.429688 99.421875 C 265.429688 102.808594 262.683594 105.558594 259.292969 105.558594 L 220.785156 105.558594 C 219.457031 105.558594 218.363281 106.605469 218.363281 107.925781 L 218.363281 136.3125 C 218.363281 137.628906 219.457031 138.679688 220.785156 138.679688 Z M 55.164062 263.578125 C 51.777344 263.578125 49.027344 260.828125 49.027344 257.441406 C 49.027344 254.054688 51.777344 251.304688 55.164062 251.304688 L 207.351562 251.304688 C 210.738281 251.304688 213.488281 254.054688 213.488281 257.441406 C 213.488281 260.828125 210.738281 263.578125 207.351562 263.578125 Z M 213.488281 172.683594 L 213.488281 219.523438 C 213.488281 222.910156 210.738281 225.660156 207.351562 225.660156 L 55.164062 225.660156 C 51.773438 225.660156 49.027344 222.910156 49.027344 219.523438 L 49.027344 172.683594 C 49.027344 169.296875 51.773438 166.546875 55.164062 166.546875 L 207.351562 166.546875 C 210.738281 166.546875 213.488281 169.296875 213.488281 172.683594 Z M 201.214844 178.820312 C 201.214844 178.820312 61.300781 178.820312 61.300781 178.820312 C 61.300781 178.820312 61.300781 213.386719 61.300781 213.386719 C 61.300781 213.386719 201.214844 213.386719 201.214844 213.386719 Z M 120.855469 301.5 C 117.46875 301.5 114.722656 298.75 114.722656 295.363281 C 114.722656 291.976562 117.46875 289.226562 120.855469 289.226562 L 207.351562 289.226562 C 210.738281 289.226562 213.488281 291.976562 213.488281 295.363281 C 213.488281 298.75 210.738281 301.5 207.351562 301.5 Z M 55.164062 301.5 C 51.777344 301.5 49.027344 298.75 49.027344 295.363281 C 49.027344 291.976562 51.777344 289.226562 55.164062 289.226562 L 88.304688 289.226562 C 91.6875 289.226562 94.4375 291.976562 94.4375 295.363281 C 94.4375 298.75 91.6875 301.5 88.304688 301.5 Z M 55.164062 301.5 " fill-opacity="1" fill-rule="evenodd"/></g></svg>