<svg xmlns="http://www.w3.org/2000/svg" xmlns:xlink="http://www.w3.org/1999/xlink" width="500" zoomAndPan="magnify" viewBox="0 0 375 374.999991" height="500" preserveAspectRatio="xMidYMid meet" version="1.0"><defs><clipPath id="eb21188740"><path d="M 0 31.171875 L 375 31.171875 L 375 343.921875 L 0 343.921875 Z M 0 31.171875 " clip-rule="nonzero"/></clipPath></defs><path fill="#6aabdc" d="M 249.273438 188.480469 L 122.527344 188.480469 L 122.527344 183.464844 L 122.523438 183.464844 L 122.507812 181.964844 L 122.503906 181.894531 L 122.5 181.796875 L 122.496094 181.753906 L 122.484375 181.667969 L 122.464844 181.554688 L 122.449219 181.476562 L 122.429688 181.402344 L 122.402344 181.304688 L 122.386719 181.261719 L 122.355469 181.171875 L 122.328125 181.113281 L 122.289062 181.019531 L 122.265625 180.972656 L 122.226562 180.902344 L 122.199219 180.859375 L 122.179688 180.820312 C 122.160156 180.789062 122.136719 180.757812 122.117188 180.726562 L 122.054688 180.640625 L 122.019531 180.597656 L 121.941406 180.503906 L 101.003906 158.386719 L 219.589844 158.386719 L 219.507812 159.945312 C 219.5 160.140625 219.496094 160.335938 219.496094 160.527344 C 219.496094 163.511719 220.660156 166.351562 222.773438 168.464844 L 237.320312 183.011719 C 238.472656 184.164062 239.855469 185.050781 241.386719 185.609375 L 245.257812 187.019531 L 249.125 185.609375 C 250.65625 185.050781 252.039062 184.164062 253.191406 183.011719 L 257.984375 178.21875 L 264.53125 184.765625 C 265.398438 185.632812 266.804688 185.632812 267.671875 184.765625 L 273.472656 178.964844 L 273.472656 188.480469 Z M 181.945312 94.210938 L 181.945312 94.222656 L 180.464844 94.222656 C 179.273438 94.222656 178.304688 95.167969 178.253906 96.351562 L 177.253906 120.125 L 172.816406 124.5625 L 151.597656 73.898438 C 151.359375 73.332031 150.90625 72.890625 150.328125 72.671875 C 149.183594 72.242188 147.910156 72.824219 147.476562 73.96875 L 137.800781 99.449219 L 125.425781 99.449219 L 124.980469 98.847656 C 122.023438 94.851562 120.394531 90.027344 120.371094 85.050781 C 120.339844 78.878906 122.769531 73.042969 127.132812 68.679688 C 131.496094 64.316406 137.332031 61.890625 143.503906 61.917969 C 149.71875 61.949219 155.609375 64.46875 160 68.855469 C 160.867188 69.726562 162.273438 69.726562 163.144531 68.855469 C 167.53125 64.46875 173.421875 61.949219 179.636719 61.917969 C 185.808594 61.890625 191.644531 64.316406 196.011719 68.679688 C 200.371094 73.042969 202.800781 78.878906 202.769531 85.054688 C 202.757812 87.859375 202.230469 90.640625 201.226562 93.261719 L 200.863281 94.210938 Z M 57.648438 170.867188 L 57.648438 179.609375 C 57.648438 180.835938 58.644531 181.832031 59.871094 181.832031 L 68.617188 181.832031 L 68.617188 197.085938 L 59.871094 197.085938 C 58.644531 197.085938 57.648438 198.082031 57.648438 199.308594 L 57.648438 208.050781 L 42.398438 208.050781 L 42.398438 199.308594 C 42.398438 198.082031 41.402344 197.085938 40.171875 197.085938 L 31.429688 197.085938 L 31.429688 181.832031 L 40.171875 181.832031 C 41.402344 181.832031 42.398438 180.839844 42.398438 179.609375 L 42.398438 170.867188 Z M 275.683594 170.460938 L 235.320312 130.097656 L 225.734375 139.679688 L 266.101562 180.046875 L 275.6875 170.460938 Z M 287.527344 148.667969 L 284.734375 148.167969 C 277.960938 146.957031 271.789062 143.722656 266.921875 138.859375 C 262.058594 133.996094 258.824219 127.820312 257.613281 121.046875 L 257.113281 118.253906 L 243.441406 131.929688 L 273.855469 162.34375 Z M 270.066406 135.714844 C 264.585938 130.230469 261.53125 122.859375 261.53125 115.105469 C 261.53125 107.355469 264.585938 99.984375 270.066406 94.5 C 275.550781 89.015625 282.921875 85.964844 290.675781 85.964844 C 298.425781 85.964844 305.796875 89.015625 311.28125 94.5 C 316.765625 99.984375 319.816406 107.355469 319.816406 115.105469 C 319.816406 122.859375 316.765625 130.230469 311.28125 135.714844 C 305.800781 141.195312 298.425781 144.25 290.675781 144.25 C 282.921875 144.25 275.550781 141.195312 270.066406 135.714844 Z M 314.425781 91.355469 C 319.289062 96.21875 322.527344 102.394531 323.738281 109.164062 L 324.238281 111.960938 L 348.207031 87.988281 C 348.832031 87.363281 349.171875 86.519531 349.171875 85.640625 C 349.171875 84.761719 348.832031 83.914062 348.207031 83.292969 L 322.488281 57.574219 C 321.867188 56.949219 321.023438 56.609375 320.140625 56.609375 C 319.261719 56.609375 318.417969 56.949219 317.792969 57.574219 L 293.824219 81.542969 L 296.617188 82.042969 C 303.390625 83.253906 309.5625 86.492188 314.425781 91.355469 Z M 166.609375 221.277344 L 166.609375 237.144531 L 122.527344 237.144531 L 122.527344 221.277344 Z M 252.816406 217.625 L 252.816406 237.144531 L 171.054688 237.144531 L 171.054688 217.625 Z M 321.757812 285.414062 C 321.867188 286.191406 321.917969 286.976562 321.917969 287.761719 L 321.917969 306.648438 C 321.917969 307.878906 322.914062 308.875 324.144531 308.875 L 368.207031 308.875 L 368.207031 337.785156 L 195.964844 337.785156 L 195.964844 308.875 L 240.03125 308.875 C 241.257812 308.875 242.253906 307.878906 242.253906 306.648438 L 242.253906 287.761719 C 242.253906 287.167969 242.28125 286.574219 242.339844 285.984375 L 242.539062 283.949219 L 244.410156 284.773438 C 256.105469 289.925781 268.691406 292.546875 281.46875 292.546875 C 294.671875 292.546875 307.664062 289.753906 319.671875 284.269531 L 321.484375 283.441406 Z M 98.085938 161.71875 L 98.085938 179.757812 L 115.164062 179.757812 Z M 290.675781 131.65625 C 286.273438 131.65625 282.089844 129.921875 278.976562 126.808594 C 275.863281 123.691406 274.128906 119.511719 274.128906 115.105469 C 274.128906 110.703125 275.859375 106.519531 278.976562 103.40625 C 282.089844 100.292969 286.273438 98.558594 290.675781 98.558594 C 295.078125 98.558594 299.261719 100.292969 302.375 103.40625 C 305.492188 106.519531 307.222656 110.703125 307.222656 115.105469 C 307.222656 119.511719 305.492188 123.691406 302.375 126.808594 C 299.261719 129.921875 295.078125 131.65625 290.675781 131.65625 Z M 290.675781 131.65625 " fill-opacity="1" fill-rule="evenodd"/><g clip-path="url(#eb21188740)"><path fill="#0883c7" d="M 279.398438 175.132812 L 279.398438 190.707031 C 279.398438 192.75 277.742188 194.410156 275.695312 194.410156 L 195.257812 194.410156 L 195.257812 211.695312 L 255.039062 211.695312 C 257.085938 211.695312 258.746094 213.355469 258.746094 215.402344 L 258.746094 239.367188 C 258.746094 241.414062 257.085938 243.074219 255.039062 243.074219 L 249.21875 243.074219 C 252.574219 245.621094 256.242188 247.78125 260.148438 249.484375 C 266.660156 252.324219 273.871094 253.898438 281.46875 253.898438 C 296.214844 253.898438 309.566406 247.921875 319.230469 238.261719 C 328.894531 228.597656 334.871094 215.246094 334.871094 200.5 C 334.871094 188.515625 330.925781 177.457031 324.265625 168.546875 C 317.617188 159.660156 308.269531 152.910156 297.449219 149.519531 C 296.511719 149.703125 295.570312 149.847656 294.625 149.957031 L 279.09375 165.484375 L 281.449219 167.84375 C 282.898438 169.289062 282.898438 171.636719 281.449219 173.082031 L 279.402344 175.132812 Z M 40.175781 164.9375 L 59.875 164.9375 C 61.917969 164.9375 63.578125 166.597656 63.578125 168.640625 L 63.578125 175.902344 L 70.839844 175.902344 C 72.886719 175.902344 74.546875 177.5625 74.546875 179.609375 L 74.546875 199.308594 C 74.546875 201.355469 72.886719 203.011719 70.839844 203.011719 L 63.578125 203.011719 L 63.578125 210.273438 C 63.578125 212.320312 61.917969 213.980469 59.875 213.980469 L 40.175781 213.980469 C 38.128906 213.980469 36.46875 212.320312 36.46875 210.273438 L 36.46875 203.011719 L 29.207031 203.011719 C 27.160156 203.011719 25.503906 201.355469 25.503906 199.308594 L 25.503906 179.609375 C 25.503906 177.5625 27.160156 175.902344 29.207031 175.902344 L 36.46875 175.902344 L 36.46875 168.640625 C 36.46875 166.597656 38.128906 164.9375 40.175781 164.9375 Z M 56.167969 172.347656 L 43.878906 172.347656 L 43.878906 179.609375 C 43.878906 181.65625 42.21875 183.3125 40.175781 183.3125 L 32.914062 183.3125 L 32.914062 195.601562 L 40.175781 195.601562 C 42.21875 195.601562 43.878906 197.261719 43.878906 199.308594 L 43.878906 206.570312 L 56.167969 206.570312 L 56.167969 199.308594 C 56.167969 197.261719 57.828125 195.601562 59.875 195.601562 L 67.132812 195.601562 L 67.132812 183.3125 L 59.875 183.3125 C 57.828125 183.3125 56.167969 181.65625 56.167969 179.609375 Z M 20.316406 278.820312 C 18.269531 278.820312 16.613281 277.164062 16.613281 275.117188 C 16.613281 273.070312 18.269531 271.410156 20.316406 271.410156 L 103.691406 271.410156 C 105.738281 271.410156 107.398438 273.070312 107.398438 275.117188 C 107.398438 277.164062 105.738281 278.820312 103.691406 278.820312 Z M 20.316406 262.433594 C 18.269531 262.433594 16.613281 260.773438 16.613281 258.726562 C 16.613281 256.679688 18.269531 255.019531 20.316406 255.019531 L 103.691406 255.019531 C 105.738281 255.019531 107.398438 256.679688 107.398438 258.726562 C 107.398438 260.773438 105.738281 262.433594 103.691406 262.433594 Z M 20.316406 246.039062 C 18.269531 246.039062 16.613281 244.382812 16.613281 242.335938 C 16.613281 240.289062 18.269531 238.628906 20.316406 238.628906 L 103.691406 238.628906 C 105.738281 238.628906 107.398438 240.289062 107.398438 242.335938 C 107.398438 244.382812 105.738281 246.039062 103.691406 246.039062 Z M 20.316406 229.652344 C 18.269531 229.652344 16.613281 227.992188 16.613281 225.945312 C 16.613281 223.898438 18.269531 222.238281 20.316406 222.238281 L 103.691406 222.238281 C 105.738281 222.238281 107.398438 223.898438 107.398438 225.945312 C 107.398438 227.992188 105.738281 229.652344 103.691406 229.652344 Z M 116.597656 185.6875 L 95.863281 185.6875 C 93.816406 185.6875 92.15625 184.03125 92.15625 181.984375 L 92.15625 159.867188 L 7.445312 159.867188 C 7.441406 159.867188 7.433594 159.875 7.425781 159.882812 L 7.417969 159.875 L 7.410156 159.882812 C 9.699219 188.5 9.699219 260.894531 7.410156 289.515625 L 7.425781 289.53125 L 116.5625 289.53125 C 116.574219 289.53125 116.585938 289.527344 116.589844 289.523438 C 116.597656 289.515625 116.597656 289.507812 116.597656 289.496094 Z M 111.71875 178.277344 L 99.566406 178.277344 L 99.566406 165.441406 L 106.296875 172.546875 Z M 7.445312 152.457031 L 27.675781 152.457031 L 27.675781 34.992188 C 27.675781 32.945312 29.335938 31.285156 31.382812 31.285156 L 275.695312 31.285156 C 277.742188 31.285156 279.398438 32.945312 279.398438 34.992188 L 279.398438 81.890625 C 281.789062 81.082031 284.246094 80.539062 286.726562 80.257812 L 313.601562 53.382812 C 315.402344 51.582031 317.773438 50.679688 320.140625 50.679688 C 322.507812 50.679688 324.878906 51.582031 326.683594 53.382812 L 327.128906 53.832031 L 331.023438 50.105469 C 333.535156 47.703125 336.777344 46.484375 340.003906 46.484375 C 343.230469 46.484375 346.453125 47.695312 348.921875 50.164062 L 355.621094 56.863281 C 355.902344 57.144531 355.542969 56.792969 355.640625 56.90625 C 355.699219 56.960938 355.761719 57.019531 355.820312 57.078125 C 358.144531 59.511719 359.332031 62.703125 359.34375 65.882812 C 359.355469 69.085938 358.171875 72.28125 355.757812 74.699219 C 355.648438 74.804688 355.816406 74.632812 355.546875 74.890625 L 351.785156 78.488281 L 352.398438 79.101562 C 354.199219 80.902344 355.101562 83.273438 355.101562 85.640625 C 355.101562 88.011719 354.199219 90.382812 352.398438 92.183594 L 326.21875 118.363281 C 340.574219 126.199219 352.644531 137.679688 361.183594 151.554688 C 369.945312 165.796875 375 182.558594 375 200.503906 C 375 226.328125 364.53125 249.710938 347.605469 266.636719 C 341.546875 272.695312 334.664062 277.925781 327.136719 282.144531 C 327.226562 282.507812 327.3125 282.878906 327.386719 283.253906 L 327.386719 283.257812 C 327.386719 283.257812 327.402344 283.253906 327.402344 283.253906 C 327.695312 284.714844 327.847656 286.222656 327.847656 287.761719 L 327.847656 302.945312 L 370.433594 302.945312 C 372.480469 302.945312 374.136719 304.605469 374.136719 306.652344 L 374.136719 340.011719 C 374.136719 342.058594 372.480469 343.71875 370.433594 343.71875 L 193.742188 343.71875 C 191.695312 343.71875 190.035156 342.058594 190.035156 340.011719 L 190.035156 306.652344 C 190.035156 304.605469 191.695312 302.945312 193.742188 302.945312 L 236.324219 302.945312 L 236.324219 287.761719 C 236.324219 286.378906 236.460938 284.980469 236.71875 283.585938 C 236.773438 283.300781 236.832031 283.015625 236.894531 282.734375 C 235.140625 281.78125 233.421875 280.777344 231.742188 279.714844 C 217.527344 270.777344 205.890625 258.105469 198.191406 243.074219 L 124.007812 243.074219 L 124.007812 289.496094 C 124.007812 291.539062 123.171875 293.398438 121.824219 294.742188 L 121.8125 294.757812 C 120.464844 296.105469 118.605469 296.941406 116.5625 296.941406 L 7.445312 296.941406 C 5.410156 296.941406 3.554688 296.105469 2.199219 294.757812 L 2.175781 294.734375 C 0.832031 293.382812 0 291.527344 0 289.496094 L 0 159.90625 C 0 157.867188 0.839844 156.007812 2.191406 154.652344 L 2.183594 154.644531 C 3.53125 153.296875 5.394531 152.460938 7.445312 152.460938 Z M 104.445312 159.867188 L 218.027344 159.867188 C 218.015625 160.089844 218.011719 160.308594 218.011719 160.527344 C 218.011719 163.78125 219.25 167.039062 221.722656 169.511719 L 236.269531 184.058594 C 237.617188 185.40625 239.195312 186.386719 240.878906 187 L 124.007812 187 L 124.007812 181.984375 L 123.988281 181.984375 L 123.988281 181.941406 C 123.988281 181.941406 123.988281 181.867188 123.988281 181.867188 L 123.988281 181.855469 C 123.988281 181.855469 123.984375 181.820312 123.984375 181.820312 L 123.984375 181.8125 C 123.984375 181.8125 123.980469 181.769531 123.980469 181.769531 L 123.976562 181.683594 L 123.972656 181.644531 C 123.972656 181.644531 123.96875 181.601562 123.96875 181.601562 L 123.96875 181.59375 C 123.96875 181.59375 123.957031 181.515625 123.957031 181.515625 L 123.953125 181.472656 L 123.953125 181.46875 C 123.953125 181.46875 123.945312 181.429688 123.945312 181.429688 L 123.941406 181.390625 L 123.9375 181.378906 L 123.933594 181.347656 L 123.925781 181.304688 L 123.917969 181.269531 L 123.917969 181.261719 L 123.910156 181.21875 L 123.898438 181.179688 L 123.890625 181.136719 L 123.878906 181.09375 L 123.867188 181.054688 L 123.859375 181.011719 L 123.84375 180.972656 L 123.820312 180.886719 L 123.8125 180.859375 L 123.808594 180.847656 L 123.796875 180.804688 L 123.785156 180.777344 L 123.78125 180.765625 L 123.757812 180.699219 L 123.753906 180.691406 L 123.753906 180.683594 L 123.726562 180.621094 L 123.722656 180.609375 L 123.71875 180.605469 L 123.703125 180.5625 L 123.6875 180.527344 L 123.6875 180.523438 C 123.6875 180.523438 123.671875 180.484375 123.671875 180.484375 L 123.652344 180.445312 C 123.652344 180.445312 123.613281 180.367188 123.613281 180.367188 C 123.613281 180.367188 123.613281 180.359375 123.613281 180.359375 L 123.613281 180.355469 L 123.578125 180.285156 L 123.574219 180.28125 L 123.554688 180.25 L 123.535156 180.210938 L 123.53125 180.199219 L 123.511719 180.171875 L 123.492188 180.132812 L 123.484375 180.121094 L 123.46875 180.09375 L 123.445312 180.054688 L 123.4375 180.042969 C 123.40625 179.992188 123.375 179.941406 123.339844 179.890625 L 123.335938 179.886719 L 123.324219 179.871094 L 123.296875 179.835938 L 123.28125 179.8125 L 123.273438 179.796875 L 123.226562 179.738281 L 123.191406 179.691406 L 123.167969 179.664062 L 123.160156 179.65625 L 123.132812 179.621094 L 123.109375 179.589844 L 123.105469 179.585938 L 123.046875 179.523438 L 123.046875 179.519531 L 123.042969 179.519531 L 122.980469 179.449219 L 104.445312 159.871094 Z M 124.007812 194.410156 L 124.007812 215.347656 L 165.125 215.347656 C 165.152344 213.324219 166.800781 211.695312 168.832031 211.695312 L 187.84375 211.695312 L 187.84375 194.410156 Z M 124.007812 222.761719 L 124.007812 235.660156 L 165.125 235.660156 L 165.125 222.761719 Z M 243.816406 286.128906 C 243.765625 286.652344 243.738281 287.195312 243.738281 287.761719 L 243.738281 306.648438 C 243.738281 308.695312 242.078125 310.355469 240.03125 310.355469 L 197.449219 310.355469 L 197.449219 336.304688 L 366.726562 336.304688 L 366.726562 310.355469 L 324.144531 310.355469 C 322.097656 310.355469 320.4375 308.695312 320.4375 306.648438 L 320.4375 287.761719 C 320.4375 287.03125 320.386719 286.316406 320.292969 285.613281 C 308.46875 291.019531 295.320312 294.03125 281.46875 294.03125 C 268.082031 294.03125 255.34375 291.210938 243.816406 286.128906 Z M 303.425781 102.359375 C 299.902344 98.839844 295.289062 97.078125 290.675781 97.078125 C 286.0625 97.078125 281.449219 98.839844 277.925781 102.359375 C 274.40625 105.878906 272.648438 110.492188 272.648438 115.105469 C 272.648438 119.722656 274.40625 124.335938 277.925781 127.855469 C 281.449219 131.375 286.0625 133.136719 290.675781 133.136719 C 295.289062 133.136719 299.902344 131.375 303.425781 127.855469 C 306.945312 124.335938 308.703125 119.722656 308.703125 115.105469 C 308.703125 110.492188 306.945312 105.878906 303.425781 102.359375 Z M 301.292969 115.105469 C 301.292969 112.390625 300.257812 109.671875 298.183594 107.597656 C 296.113281 105.527344 293.394531 104.488281 290.675781 104.488281 C 287.957031 104.488281 285.238281 105.527344 283.167969 107.597656 C 281.09375 109.671875 280.058594 112.390625 280.058594 115.105469 C 280.058594 117.824219 281.09375 120.542969 283.167969 122.617188 C 285.238281 124.6875 287.957031 125.726562 290.675781 125.726562 C 293.394531 125.726562 296.109375 124.6875 298.183594 122.617188 C 300.257812 120.542969 301.292969 117.824219 301.292969 115.105469 Z M 315.476562 90.308594 C 320.738281 95.574219 323.980469 102.09375 325.195312 108.902344 L 347.160156 86.941406 C 347.515625 86.585938 347.691406 86.113281 347.691406 85.640625 C 347.691406 85.164062 347.515625 84.695312 347.160156 84.339844 L 321.441406 58.621094 C 321.089844 58.265625 320.617188 58.089844 320.140625 58.089844 C 319.667969 58.089844 319.195312 58.265625 318.84375 58.621094 L 296.878906 80.585938 C 303.691406 81.804688 310.210938 85.042969 315.476562 90.308594 Z M 324.128906 125.660156 C 336.699219 132.839844 347.289062 143.109375 354.875 155.433594 C 362.9375 168.539062 367.589844 183.972656 367.589844 200.5 C 367.589844 224.28125 357.949219 245.8125 342.367188 261.394531 C 326.78125 276.980469 305.253906 286.617188 281.472656 286.617188 C 264.628906 286.617188 248.929688 281.796875 235.679688 273.460938 C 223.648438 265.890625 213.625 255.4375 206.582031 243.074219 L 238.0625 243.074219 C 243.492188 248.609375 249.980469 253.113281 257.199219 256.257812 C 264.652344 259.507812 272.859375 261.308594 281.472656 261.308594 C 298.261719 261.308594 313.464844 254.503906 324.46875 243.5 C 335.476562 232.492188 342.28125 217.289062 342.28125 200.5 C 342.28125 186.859375 337.789062 174.265625 330.199219 164.117188 C 324.367188 156.320312 316.703125 149.96875 307.84375 145.699219 C 310.578125 144.164062 313.148438 142.234375 315.476562 139.90625 C 319.605469 135.777344 322.492188 130.871094 324.128906 125.660156 Z M 284.472656 149.628906 L 273.855469 160.246094 L 259.695312 146.085938 L 245.535156 131.929688 L 256.15625 121.308594 C 257.371094 128.121094 260.613281 134.640625 265.878906 139.90625 C 271.140625 145.171875 277.664062 148.410156 284.472656 149.628906 Z M 255.828125 111.15625 L 240.296875 126.6875 L 237.941406 124.332031 C 236.492188 122.886719 234.148438 122.886719 232.699219 124.332031 L 219.972656 137.0625 C 218.523438 138.507812 218.523438 140.855469 219.972656 142.300781 L 225.46875 147.796875 L 221.722656 151.542969 C 221.429688 151.835938 221.152344 152.140625 220.894531 152.457031 L 35.089844 152.457031 L 35.089844 38.695312 L 271.988281 38.695312 L 271.988281 85.421875 C 269.820312 86.789062 267.765625 88.417969 265.875 90.308594 C 260.035156 96.152344 256.683594 103.542969 255.828125 111.160156 Z M 318.335938 115.105469 C 318.335938 108.027344 315.636719 100.949219 310.234375 95.546875 C 304.832031 90.148438 297.753906 87.445312 290.675781 87.445312 C 283.597656 87.445312 276.515625 90.148438 271.117188 95.546875 C 265.714844 100.949219 263.015625 108.027344 263.015625 115.105469 C 263.015625 122.1875 265.714844 129.265625 271.117188 134.664062 C 276.515625 140.066406 283.597656 142.765625 290.675781 142.765625 C 297.753906 142.765625 304.832031 140.066406 310.234375 134.667969 C 315.636719 129.265625 318.335938 122.1875 318.335938 115.109375 Z M 346.558594 73.257812 L 350.453125 69.53125 C 350.632812 69.363281 350.320312 69.65625 350.515625 69.457031 C 351.492188 68.484375 351.96875 67.1875 351.964844 65.878906 C 351.960938 64.582031 351.476562 63.269531 350.53125 62.242188 C 350.53125 62.25 350.492188 62.214844 350.378906 62.101562 L 343.679688 55.402344 C 342.667969 54.390625 341.34375 53.890625 340.003906 53.890625 C 338.609375 53.890625 337.207031 54.421875 336.121094 55.460938 L 332.359375 59.058594 Z M 257.984375 180.316406 L 263.480469 185.8125 C 264.929688 187.257812 267.273438 187.257812 268.722656 185.8125 L 271.988281 182.542969 L 271.988281 187 L 249.632812 187 C 251.316406 186.386719 252.894531 185.40625 254.238281 184.058594 Z M 230.707031 153.035156 L 252.746094 175.074219 L 249 178.820312 C 247.972656 179.847656 246.617188 180.359375 245.257812 180.359375 C 243.894531 180.359375 242.539062 179.847656 241.511719 178.820312 L 226.960938 164.269531 C 225.9375 163.246094 225.421875 161.886719 225.421875 160.527344 C 225.421875 159.632812 225.644531 158.742188 226.085938 157.945312 L 226.09375 157.929688 C 226.324219 157.515625 226.613281 157.132812 226.960938 156.78125 L 230.707031 153.039062 Z M 254.457031 151.328125 L 273.589844 170.460938 L 266.101562 177.949219 L 227.832031 139.679688 L 235.320312 132.191406 L 237.675781 134.546875 C 237.675781 134.546875 254.457031 151.324219 254.457031 151.324219 Z M 251.335938 219.105469 L 251.335938 235.660156 L 172.539062 235.660156 L 172.539062 219.105469 Z M 60.792969 105.375 L 122.761719 105.375 C 122.878906 105.496094 122.996094 105.617188 123.117188 105.738281 L 158.949219 141.570312 C 160.398438 143.015625 162.742188 143.015625 164.191406 141.570312 L 170.769531 134.992188 L 175.054688 145.222656 C 175.835938 147.109375 178.003906 148.003906 179.886719 147.21875 C 181.328125 146.621094 182.1875 145.222656 182.167969 143.753906 L 183.054688 122.703125 L 200.023438 105.738281 C 201.742188 104.015625 203.210938 102.136719 204.417969 100.140625 L 246.285156 100.140625 C 248.332031 100.140625 249.988281 98.480469 249.988281 96.433594 C 249.988281 94.386719 248.332031 92.730469 246.285156 92.730469 L 207.613281 92.730469 C 208.304688 90.226562 208.65625 87.652344 208.667969 85.074219 C 208.707031 77.628906 205.90625 70.191406 200.199219 64.488281 C 194.496094 58.78125 187.058594 55.980469 179.613281 56.019531 C 173.226562 56.050781 166.847656 58.171875 161.570312 62.335938 C 156.292969 58.171875 149.914062 56.050781 143.523438 56.019531 C 136.082031 55.980469 128.644531 58.78125 122.9375 64.488281 C 117.234375 70.191406 114.433594 77.628906 114.46875 85.074219 C 114.492188 89.496094 115.515625 93.914062 117.523438 97.964844 L 60.789062 97.964844 C 58.746094 97.964844 57.085938 99.625 57.085938 101.671875 C 57.085938 103.714844 58.746094 105.375 60.789062 105.375 Z M 126.171875 97.964844 L 136.78125 97.964844 L 146.089844 73.441406 C 146.808594 71.53125 148.941406 70.566406 150.851562 71.285156 C 151.847656 71.660156 152.585938 72.417969 152.964844 73.328125 C 152.964844 73.328125 173.328125 121.953125 173.328125 121.953125 L 175.796875 119.484375 L 176.773438 96.289062 C 176.851562 94.300781 178.492188 92.738281 180.464844 92.742188 L 180.464844 92.730469 L 199.84375 92.730469 C 200.792969 90.253906 201.273438 87.648438 201.289062 85.042969 C 201.316406 79.519531 199.222656 73.988281 194.960938 69.726562 C 190.699219 65.464844 185.167969 63.371094 179.644531 63.398438 C 174.070312 63.425781 168.480469 65.613281 164.191406 69.902344 C 162.742188 71.351562 160.398438 71.351562 158.949219 69.902344 C 154.660156 65.613281 149.074219 63.425781 143.496094 63.398438 C 137.972656 63.371094 132.441406 65.464844 128.179688 69.726562 C 123.917969 73.988281 121.824219 79.519531 121.851562 85.042969 C 121.875 89.578125 123.324219 94.117188 126.171875 97.964844 Z M 195.132812 100.140625 L 184.007812 100.140625 L 183.515625 111.765625 L 194.785156 100.496094 C 194.902344 100.378906 195.019531 100.257812 195.136719 100.140625 Z M 167.675781 127.605469 L 149.71875 84.71875 L 142.878906 102.734375 C 142.421875 104.261719 141.003906 105.375 139.328125 105.375 L 133.234375 105.375 L 161.570312 133.710938 Z M 167.675781 127.605469 " fill-opacity="1" fill-rule="evenodd"/></g></svg>